<?xml version="1.0" encoding="UTF-8"?>
<svg id="Capa_2" data-name="Capa 2" xmlns="http://www.w3.org/2000/svg" viewBox="0 0 434.95 148.33">
  <defs>
    <style>
      .cls-1 {
        fill: #3881f4;
      }

      .cls-2 {
        fill: #292621;
      }
    </style>
  </defs>
  <g id="Capa_2-2" data-name="Capa 2">
    <g>
      <path class="cls-2" d="M167.26,78.21c8.89,0,15.78-1.8,20.65-5.41,4.87-3.61,7.3-8.68,7.3-15.24,0-4.45-.9-7.98-2.71-10.6-1.8-2.61-3.86-4.48-6.18-5.59-2.31-1.11-5.09-2.12-8.34-3.02-.96-.24-1.86-.5-2.71-.77-.84-.27-1.47-.57-1.89-.9-.42-.33-.63-.71-.63-1.13,0-.6.3-1.04.9-1.31.6-.27,1.41-.41,2.43-.41,1.98,0,4.24.3,6.76.9,2.53.6,5.08,1.41,7.66,2.44l2.61-2.07v-15.96c-2.52-.78-5.36-1.44-8.52-1.98-3.16-.54-6.21-.81-9.15-.81-8.72,0-15.39,1.86-20.02,5.59-4.63,3.73-6.94,8.74-6.94,15.06,0,4.15.86,7.48,2.57,10.01,1.71,2.52,3.7,4.34,5.95,5.45,2.26,1.11,5,2.15,8.25,3.11,1.02.3,1.98.6,2.88.9s1.59.63,2.07.99c.48.36.72.81.72,1.35,0,.6-.33,1.07-.99,1.4-.66.33-1.59.5-2.79.5-2.41,0-5.14-.33-8.2-.99-3.07-.66-5.74-1.47-8.02-2.44l-2.71,2.07v16.14c3.25.9,6.49,1.58,9.74,2.03,3.25.45,6.34.68,9.29.68Z"/>
      <path class="cls-2" d="M221.81,68.74h12.03l1.85,8.02h22.45v-7.21l-15.69-51.75h-28.04l-15.69,51.75v7.21h21.19l1.9-8.02ZM224.44,52.78l3.45-14.24,3.41,14.24h-6.86Z"/>
      <polygon class="cls-2" points="308.09 58.73 288.8 58.73 288.8 17.8 264.82 17.8 264.82 76.76 308.09 76.76 308.09 58.73"/>
      <path class="cls-2" d="M344.25,56.3c0,1.38-.3,2.47-.9,3.25-.6.78-1.47,1.17-2.61,1.17-1.2,0-2.15-.39-2.84-1.17-.69-.78-1.04-1.86-1.04-3.25V17.8h-23.98v36.7c0,7.69,2.34,13.57,7.03,17.63,4.69,4.06,11.45,6.09,20.29,6.09,5.71,0,10.67-.98,14.88-2.93,4.21-1.95,7.45-4.73,9.74-8.34,2.28-3.61,3.43-7.81,3.43-12.62V17.8h-23.98v38.5Z"/>
      <path class="cls-2" d="M427.01,24.79c-5.29-4.66-13.58-6.99-24.88-6.99h-25.42v58.96h24.07c8.17,0,14.76-1.02,19.75-3.06,4.99-2.04,8.64-5.26,10.95-9.65,2.31-4.39,3.47-10.16,3.47-17.31,0-9.98-2.65-17.29-7.93-21.95ZM409.3,54.18c-.39,1.71-1.01,2.9-1.85,3.56-.84.66-2.01.99-3.52.99h-3.52v-22.9h2.98c1.74,0,3.07.29,3.97.86.9.57,1.55,1.62,1.94,3.15.39,1.53.59,3.83.59,6.9,0,3.25-.2,5.73-.59,7.44Z"/>
      <polygon class="cls-2" points="182.23 108.66 173.21 108.66 173.21 87.92 149.23 87.92 149.23 146.89 173.21 146.89 173.21 126.69 182.23 126.69 182.23 146.89 206.21 146.89 206.21 87.92 182.23 87.92 182.23 108.66"/>
      <path class="cls-2" d="M245.79,86.48c-10.22,0-18.15,2.68-23.8,8.02-5.65,5.35-8.47,12.95-8.47,22.81s2.84,17.49,8.52,22.9c5.68,5.41,13.6,8.11,23.76,8.11s18.23-2.69,23.85-8.07c5.62-5.38,8.43-13.03,8.43-22.94s-2.81-17.46-8.43-22.81c-5.62-5.35-13.57-8.02-23.85-8.02ZM251.2,127.68c-1.2,2.11-3.01,3.16-5.41,3.16s-4.21-1.05-5.41-3.16c-1.2-2.1-1.8-5.56-1.8-10.37s.6-8.08,1.8-10.19c1.2-2.1,3-3.16,5.41-3.16s4.21,1.05,5.41,3.16c1.2,2.11,1.8,5.5,1.8,10.19s-.6,8.26-1.8,10.37Z"/>
      <rect class="cls-2" x="285.37" y="87.92" width="23.98" height="58.97"/>
      <path class="cls-1" d="M107.17,86.96c7.94-5.68,14.65-13.03,19.67-21.74,9.23-16.02,11.67-34.68,6.86-52.54l-43.13,11.6c1.7,6.34.84,12.96-2.44,18.64-3.27,5.69-8.57,9.76-14.9,11.46-13.09,3.52-26.58-4.26-30.1-17.34L0,48.65c5,18.58,17.15,33.36,32.69,42.18C15.17,103.4,3.71,123.93,3.71,147.1h44.66c0-13.55,11.02-24.56,24.56-24.56s24.56,11.02,24.56,24.56h44.66c0-25.73-14.12-48.2-35-60.14Z"/>
      <ellipse class="cls-1" cx="64.78" cy="20.8" rx="18.08" ry="20.89" transform="translate(-2.7 12.1) rotate(-10.45)"/>
    </g>
  </g>
</svg>